<?xml version="1.0" encoding="utf-8"?>
<!-- Generator: Adobe Illustrator 24.2.1, SVG Export Plug-In . SVG Version: 6.00 Build 0)  -->
<svg version="1.1" id="Layer_1" xmlns="http://www.w3.org/2000/svg" xmlns:xlink="http://www.w3.org/1999/xlink" x="0px" y="0px"
	 viewBox="0 0 738.91 371.33" style="enable-background:new 0 0 738.91 371.33;" xml:space="preserve">
<style type="text/css">
	.st0{fill:#1F221D;stroke:#000000;stroke-width:0.5;stroke-miterlimit:10;}
	.st1{fill:#262628;}
</style>
<g>
	<path class="st0" d="M4.71,325.25c0-0.66,0.57-1.23,1.23-1.23s1.23,0.57,1.23,1.23s-0.57,1.23-1.23,1.23
		C5.28,326.48,4.71,325.91,4.71,325.25z M5.47,333.26h0.95v24.52H5.47V333.26z"/>
	<path class="st0" d="M38.38,343.32v14.46h-0.95v-14.46c0-6.07-3.27-9.29-8.82-9.29c-6.45,0-10.34,4.22-10.34,10.43v13.33h-0.95
		v-24.52h0.95v6.54c1.47-4.08,5.07-6.69,10.29-6.69C34.59,333.12,38.38,336.68,38.38,343.32z"/>
	<path class="st0" d="M45.07,354.56l0.57-0.76c1.75,1.71,5.07,3.22,9.01,3.22c5.83,0,8.16-2.23,8.16-5.45
		c0-8.2-16.79-2.61-16.79-12.14c0-3.27,2.61-6.31,8.68-6.31c3.04,0,6.26,1,8.11,2.51l-0.57,0.76c-1.94-1.56-4.79-2.37-7.54-2.37
		c-5.41,0-7.68,2.37-7.68,5.41c0,8.44,16.74,2.89,16.74,12.14c0,3.7-2.99,6.36-9.11,6.36C50.66,357.93,46.92,356.5,45.07,354.56z"/>
	<path class="st0" d="M94.77,345.55c0,7.26-5.17,12.38-11.9,12.38c-5.12,0-9.3-2.99-10.96-7.59v16.65h-0.95v-33.72h0.95v7.49
		c1.66-4.65,5.83-7.64,10.96-7.64C89.6,333.12,94.77,338.29,94.77,345.55z M93.82,345.55c0-6.78-4.7-11.52-10.96-11.52
		c-6.26,0-10.96,4.74-10.96,11.52s4.69,11.48,10.96,11.48C89.12,357.02,93.82,352.33,93.82,345.55z"/>
	<path class="st0" d="M102.02,325.25c0-0.66,0.57-1.23,1.23-1.23c0.66,0,1.23,0.57,1.23,1.23s-0.57,1.23-1.23,1.23
		C102.59,326.48,102.02,325.91,102.02,325.25z M102.78,333.26h0.95v24.52h-0.95V333.26z"/>
	<path class="st0" d="M125.21,333.12v0.95h-0.28c-5.88,0-9.34,4.03-9.34,10.53v13.18h-0.95v-24.52h0.95v6.36
		C116.96,335.49,120.28,333.12,125.21,333.12z"/>
	<path class="st0" d="M151.91,345.5h-21.82c0,6.78,4.84,11.52,11.33,11.52c3.27,0,6.4-1.23,8.35-3.79l0.66,0.66
		c-2.18,2.66-5.5,4.03-9.01,4.03c-7.07,0-12.24-5.17-12.24-12.43s4.84-12.38,11.33-12.38c6.45,0,11.38,5.03,11.38,12.14v0.25H151.91
		z M130.1,344.6h20.91c-0.33-6.07-4.69-10.58-10.48-10.58C134.75,334.02,130.43,338.53,130.1,344.6z"/>
	<path class="st0" d="M180.84,322.59v35.19h-0.95v-7.49c-1.66,4.65-5.83,7.64-10.96,7.64c-6.73,0-11.9-5.17-11.9-12.43
		s5.17-12.38,11.9-12.38c5.12,0,9.3,2.99,10.96,7.59v-18.12L180.84,322.59L180.84,322.59z M179.89,345.5
		c0-6.78-4.69-11.48-10.96-11.48c-6.26,0-10.96,4.7-10.96,11.48s4.7,11.52,10.96,11.52C175.2,357.02,179.89,352.28,179.89,345.5z"/>
	<path class="st0" d="M227.41,345.5c0,7.26-5.17,12.43-11.9,12.43c-5.12,0-9.3-2.99-10.96-7.64v7.49h-0.95v-35.19h0.95v18.12
		c1.66-4.6,5.83-7.59,10.96-7.59C222.25,333.12,227.41,338.24,227.41,345.5z M226.47,345.5c0-6.78-4.7-11.48-10.96-11.48
		c-6.26,0-10.96,4.7-10.96,11.48s4.69,11.52,10.96,11.52C221.77,357.02,226.47,352.28,226.47,345.5z"/>
	<path class="st0" d="M253.07,333.26l-13.04,28.46c-1.85,4.03-4.03,5.41-6.92,5.41c-2.13,0-3.98-0.71-5.31-2.18l0.71-0.76
		c1.33,1.42,2.7,2.04,4.65,2.04c2.37,0,4.22-1.09,5.93-4.79l1.71-3.75l-11.24-24.42h1.09l10.67,23.43l10.67-23.43L253.07,333.26
		L253.07,333.26z"/>
	<path class="st0" d="M295.71,341.52h0.9v12.14c-2.85,2.85-6.92,4.27-11.43,4.27c-9.86,0-17.17-7.16-17.17-16.74
		s7.3-16.74,17.17-16.74c4.5,0,8.58,1.38,11.43,4.22l-0.57,0.66c-3.04-2.89-6.69-3.98-10.86-3.98c-9.3,0-16.22,6.88-16.22,15.84
		s6.92,15.84,16.22,15.84c4.03,0,7.68-1.04,10.53-3.75V341.52z"/>
	<path class="st0" d="M317.95,333.12v0.95h-0.28c-5.88,0-9.34,4.03-9.34,10.53v13.18h-0.95v-24.52h0.95v6.36
		C309.7,335.49,313.02,333.12,317.95,333.12z"/>
	<path class="st0" d="M344.65,345.5h-21.82c0,6.78,4.84,11.52,11.33,11.52c3.27,0,6.4-1.23,8.35-3.79l0.66,0.66
		c-2.18,2.66-5.5,4.03-9.01,4.03c-7.07,0-12.24-5.17-12.24-12.43s4.84-12.38,11.33-12.38c6.45,0,11.38,5.03,11.38,12.14v0.25H344.65
		z M322.83,344.6h20.91c-0.33-6.07-4.69-10.58-10.48-10.58C327.48,334.02,323.17,338.53,322.83,344.6z"/>
	<path class="st0" d="M372.49,345.5h-21.82c0,6.78,4.84,11.52,11.33,11.52c3.27,0,6.4-1.23,8.35-3.79l0.66,0.66
		c-2.18,2.66-5.5,4.03-9.01,4.03c-7.07,0-12.24-5.17-12.24-12.43s4.84-12.38,11.33-12.38c6.45,0,11.38,5.03,11.38,12.14v0.25H372.49
		z M350.67,344.6h20.91c-0.33-6.07-4.69-10.58-10.48-10.58C355.32,334.02,351,338.53,350.67,344.6z"/>
	<path class="st0" d="M388.71,343.6l-7.26,6.59v7.59h-0.95v-35.19h0.95v26.46l17.31-15.79h1.38l-10.67,9.77l11.76,14.75H400
		L388.71,343.6z"/>
	<path class="st0" d="M440.45,343.32v14.46h-0.95v-14.46c0-6.07-3.27-9.29-8.82-9.29c-6.45,0-10.34,4.22-10.34,10.43v13.33h-0.95
		v-24.52h0.95v6.54c1.47-4.08,5.07-6.69,10.29-6.69C436.65,333.12,440.45,336.68,440.45,343.32z"/>
	<path class="st0" d="M467.67,341.71v16.08h-0.95v-5.22c-1.56,3.27-4.74,5.36-9.34,5.36c-5.5,0-8.68-2.75-8.68-6.88
		c0-3.51,2.18-6.59,8.73-6.59h9.29v-2.7c0-5.12-2.7-7.73-7.78-7.73c-3.65,0-6.78,1.38-8.92,3.42l-0.66-0.66
		c2.32-2.23,5.83-3.65,9.53-3.65C464.59,333.12,467.67,336.11,467.67,341.71z M466.72,350.76v-5.41h-9.34
		c-5.55,0-7.73,2.37-7.73,5.64c0,3.7,2.85,6.02,7.73,6.02C462.12,357.02,465.11,354.75,466.72,350.76z"/>
	<path class="st0" d="M489.39,356.17c-1.14,1.19-3.04,1.75-4.79,1.75c-3.89,0-5.93-2.42-5.93-6.02v-17.74h-4.74v-0.9h4.74v-5.36
		h0.95v5.36h8.3v0.9h-8.3v17.5c0,3.46,1.71,5.36,5.03,5.36c1.57,0,3.04-0.52,4.08-1.52L489.39,356.17z"/>
	<path class="st0" d="M517.27,333.26v24.52h-0.95v-6.5c-1.42,4.08-4.88,6.64-9.86,6.64c-6.21,0-10.05-3.56-10.05-10.2v-14.46h0.95
		v14.46c0,6.07,3.32,9.29,9.06,9.29c6.17,0,9.91-4.22,9.91-10.43v-13.33L517.27,333.26L517.27,333.26z"/>
	<path class="st0" d="M538.76,333.12v0.95h-0.28c-5.88,0-9.34,4.03-9.34,10.53v13.18h-0.95v-24.52h0.95v6.36
		C530.51,335.49,533.83,333.12,538.76,333.12z"/>
	<path class="st0" d="M565.46,345.5h-21.82c0,6.78,4.84,11.52,11.33,11.52c3.27,0,6.4-1.23,8.35-3.79l0.66,0.66
		c-2.18,2.66-5.5,4.03-9.01,4.03c-7.07,0-12.24-5.17-12.24-12.43s4.84-12.38,11.33-12.38c6.45,0,11.38,5.03,11.38,12.14v0.25H565.46
		z M543.64,344.6h20.91c-0.33-6.07-4.7-10.58-10.48-10.58C548.29,334.02,543.97,338.53,543.64,344.6z"/>
	<path class="st0" d="M571.1,356.69c0-0.66,0.57-1.23,1.23-1.23s1.23,0.57,1.23,1.23s-0.57,1.23-1.23,1.23
		S571.1,357.36,571.1,356.69z"/>
</g>
<g>
	<g>
		<path class="st1" d="M115.86,238.11V82.55H26.74v155.56H0V59.05h142.6v179.06H115.86z"/>
		<path class="st1" d="M446.43,266.47c-80.62,40.51-155.15-62.79-204.17-111.81v83.45h-26.74V59.05h26.74v67.65l67.65-67.65h37.67
			l-81.43,81.43c47.8,46.59,100.06,140.98,181.49,110.59L446.43,266.47z"/>
		<path class="st1" d="M480.46,244.19c-59.96,0-102.9-40.11-102.9-95.6c0-55.5,45.78-95.6,102.9-95.6
			c59.55,0,102.49,40.11,102.49,95.6C582.95,204.08,537.17,244.19,480.46,244.19z M480.46,78.5c-41.32,0-75.75,28.76-75.75,70.08
			s31.19,70.49,75.75,70.49c41.32,0,75.75-29.17,75.75-70.49S524.62,78.5,480.46,78.5z"/>
		<path class="st1" d="M679.37,244.19c-25.52,0-46.59-13.77-59.96-29.98l15.8-17.42c8.91,9.72,23.5,23.9,46.99,23.9
			c14.58,0,29.98-9.72,29.98-28.76c0-14.18-12.15-24.31-43.75-41.32c-23.09-12.96-41.73-27.14-41.73-50.23
			c0-31.19,25.52-47.4,53.88-47.4c18.63,0,34.84,8.51,48.21,19.04l-11.75,19.44c-12.15-8.91-24.71-14.58-37.67-14.58
			c-10.94,0-25.93,5.67-25.93,20.66c0,15.8,13.77,20.66,32,31.19c30.79,17.01,53.47,33.22,53.47,62.39
			C738.92,219.07,715.83,244.19,679.37,244.19z"/>
	</g>
	<rect x="215.29" class="st1" width="27.04" height="25.84"/>
</g>
</svg>
